<svg width="138" height="32" viewBox="0 0 138 32" fill="none" xmlns="http://www.w3.org/2000/svg">
<path d="M16 0C7.163 0 0 7.163 0 16C0 24.836 7.163 32 16 32C24.837 32 32 24.836 32 16C32 7.163 24.837 0 16 0Z" fill="#333333"/>
<path d="M1.838 17.806H5.517V8.902H7.971L8.296 5.834H5.517L5.521 4.298C5.521 3.498 5.597 3.069 6.745 3.069H8.279V1.2207e-07H5.824C2.875 1.2207e-07 1.838 1.489 1.838 3.992V5.834H2.36511e-07V8.903H1.838V17.806Z" transform="translate(11.852 7.09698)" fill="white"/>
<path d="M16 0C7.163 0 0 7.163 0 16C0 24.836 7.163 32 16 32C24.837 32 32 24.836 32 16C32 7.163 24.837 0 16 0Z" transform="translate(53)" fill="#333333"/>
<path d="M11.03 0.172224C9.44 0.751224 8.435 2.24322 8.549 3.87622L8.587 4.50622L7.951 4.42922C5.636 4.13322 3.613 3.13022 1.895 1.44522L1.055 0.609224L0.84 1.22622C0.382 2.60222 0.675 4.05622 1.629 5.03422C2.138 5.57422 2.023 5.65122 1.146 5.33022C0.841 5.22722 0.573 5.15022 0.548 5.18922C0.459 5.27922 0.764 6.44922 1.006 6.91322C1.337 7.55722 2.011 8.18622 2.749 8.56022L3.373 8.85622L2.634 8.86722C1.922 8.86722 1.896 8.88022 1.973 9.15122C2.227 9.98722 3.232 10.8752 4.352 11.2612L5.141 11.5312L4.454 11.9432C3.436 12.5362 2.24 12.8702 1.044 12.8942C0.471 12.9072 9.91821e-08 12.9582 9.91821e-08 12.9972C9.91821e-08 13.1252 1.553 13.8452 2.455 14.1292C5.165 14.9652 8.384 14.6042 10.801 13.1772C12.519 12.1612 14.236 10.1412 15.038 8.18522C15.471 7.14422 15.903 5.24022 15.903 4.32722C15.903 3.73522 15.941 3.65822 16.653 2.95122C17.073 2.53922 17.467 2.08922 17.544 1.96122C17.672 1.71622 17.658 1.71622 17.01 1.93522C15.929 2.32122 15.776 2.27022 16.311 1.69122C16.705 1.27922 17.176 0.533225 17.176 0.315225C17.176 0.277225 16.985 0.341224 16.769 0.456224C16.54 0.585224 16.031 0.778225 15.649 0.893225L14.962 1.11222L14.339 0.686224C13.995 0.455224 13.513 0.197224 13.258 0.120224C12.608 -0.0597761 11.616 -0.033776 11.03 0.172224Z" transform="translate(60.196 8.71375)" fill="white"/>
<path d="M16 0C7.163 0 0 7.163 0 16C0 24.836 7.163 32 16 32C24.837 32 32 24.836 32 16C32 7.163 24.837 0 16 0Z" transform="translate(106)" fill="#333333"/>
<path d="M14.133 -1.71661e-07H2.019C0.879 -1.71661e-07 -2.13623e-07 0.879 -2.13623e-07 2.019V14.132C-2.13623e-07 15.272 0.879 16.151 2.019 16.151H14.132C15.272 16.151 16.151 15.272 16.151 14.132V2.019C16.152 0.878 15.272 -1.71661e-07 14.133 -1.71661e-07ZM8.088 4.903C9.879 4.903 11.331 6.31 11.331 8.045C11.331 9.78 9.879 11.187 8.088 11.187C6.298 11.187 4.846 9.779 4.846 8.045C4.846 6.309 6.298 4.903 8.088 4.903ZM14.133 13.627C14.133 13.981 13.982 14.132 13.628 14.132H2.524C2.171 14.132 2.019 13.981 2.019 13.627V6.561L3.277 6.835C3.142 7.274 3.069 7.738 3.069 8.22C3.069 10.904 5.317 13.083 8.087 13.083C10.859 13.083 13.106 10.905 13.106 8.22C13.106 7.738 13.033 7.274 12.898 6.835L14.132 6.561V13.627H14.133ZM14.133 4.542C14.133 4.821 13.907 5.047 13.628 5.047H11.609C11.33 5.047 11.104 4.821 11.104 4.542V2.523C11.104 2.244 11.33 2.018 11.609 2.018H13.628C13.907 2.018 14.133 2.244 14.133 2.523V4.542Z" transform="translate(113.924 7.92999)" fill="white"/>
</svg>
